<svg aria-hidden="true" style="position: absolute; width: 0; height: 0; overflow: hidden;" version="1.1" xmlns="http://www.w3.org/2000/svg" xmlns:xlink="http://www.w3.org/1999/xlink">
<defs>
<symbol id="icon-info-circle" viewBox="0 0 24 28">
<path d="M16 21.5v-2.5c0-0.281-0.219-0.5-0.5-0.5h-1.5v-8c0-0.281-0.219-0.5-0.5-0.5h-5c-0.281 0-0.5 0.219-0.5 0.5v2.5c0 0.281 0.219 0.5 0.5 0.5h1.5v5h-1.5c-0.281 0-0.5 0.219-0.5 0.5v2.5c0 0.281 0.219 0.5 0.5 0.5h7c0.281 0 0.5-0.219 0.5-0.5zM14 7.5v-2.5c0-0.281-0.219-0.5-0.5-0.5h-3c-0.281 0-0.5 0.219-0.5 0.5v2.5c0 0.281 0.219 0.5 0.5 0.5h3c0.281 0 0.5-0.219 0.5-0.5zM24 14c0 6.625-5.375 12-12 12s-12-5.375-12-12 5.375-12 12-12 12 5.375 12 12z"></path>
</symbol>
<symbol id="icon-home" viewBox="0 0 26 28">
<path d="M22 15.5v7.5c0 0.547-0.453 1-1 1h-6v-6h-4v6h-6c-0.547 0-1-0.453-1-1v-7.5c0-0.031 0.016-0.063 0.016-0.094l8.984-7.406 8.984 7.406c0.016 0.031 0.016 0.063 0.016 0.094zM25.484 14.422l-0.969 1.156c-0.078 0.094-0.203 0.156-0.328 0.172h-0.047c-0.125 0-0.234-0.031-0.328-0.109l-10.813-9.016-10.813 9.016c-0.109 0.078-0.234 0.125-0.375 0.109-0.125-0.016-0.25-0.078-0.328-0.172l-0.969-1.156c-0.172-0.203-0.141-0.531 0.063-0.703l11.234-9.359c0.656-0.547 1.719-0.547 2.375 0l3.813 3.187v-3.047c0-0.281 0.219-0.5 0.5-0.5h3c0.281 0 0.5 0.219 0.5 0.5v6.375l3.422 2.844c0.203 0.172 0.234 0.5 0.063 0.703z"></path>
</symbol>
<symbol id="icon-user-circle" viewBox="0 0 28 28">
<path d="M23.797 20.922c-0.406-2.922-1.594-5.516-4.25-5.875-1.375 1.5-3.359 2.453-5.547 2.453s-4.172-0.953-5.547-2.453c-2.656 0.359-3.844 2.953-4.25 5.875 2.172 3.063 5.75 5.078 9.797 5.078s7.625-2.016 9.797-5.078zM20 10c0-3.313-2.688-6-6-6s-6 2.688-6 6 2.688 6 6 6 6-2.688 6-6zM28 14c0 7.703-6.25 14-14 14-7.734 0-14-6.281-14-14 0-7.734 6.266-14 14-14s14 6.266 14 14z"></path>
</symbol>
<symbol id="icon-game-controller" viewBox="0 0 20 20">
<path d="M19.444 9.361c-0.882-4.926-2.854-6.379-3.903-6.379-1.637 0-2.057 1.217-5.541 1.258-3.484-0.041-3.904-1.258-5.541-1.258-1.049 0-3.022 1.453-3.904 6.379-0.503 2.812-1.049 7.010 0.252 7.514 1.619 0.627 2.168-0.941 3.946-2.266 1.805-1.343 2.671-1.659 5.247-1.659s3.442 0.316 5.247 1.659c1.778 1.324 2.327 2.893 3.946 2.266 1.301-0.504 0.755-4.701 0.251-7.514zM6 10c-1.105 0-2-0.896-2-2s0.895-2 2-2 2 0.895 2 2c0 1.104-0.896 2-2 2zM13 10c-0.553 0-1-0.447-1-1s0.447-1 1-1c0.553 0 1 0.447 1 1s-0.447 1-1 1zM15 8c-0.553 0-1-0.447-1-1s0.447-1 1-1c0.553 0 1 0.447 1 1s-0.447 1-1 1z"></path>
</symbol>
<symbol id="icon-laptop" viewBox="0 0 20 20">
<path d="M19.754 15.631c-0.247-0.371-1.754-2.631-1.754-2.631v-9c0-1.102-0.9-2-2-2h-12c-1.101 0-2 0.898-2 2v9c0 0-1.507 2.26-1.754 2.631-0.246 0.369-0.246 0.582-0.246 0.869v0.5c0 0.5 0.5 1 0.999 1h18.002c0.499 0 0.999-0.5 0.999-1v-0.5c0-0.287 0-0.5-0.246-0.869zM7 16l0.6-1h4.8l0.6 1h-6zM16 12h-12v-8h12v8z"></path>
</symbol>
<symbol id="icon-mail" viewBox="0 0 20 20">
<path d="M1.574 5.286c0.488 0.262 7.248 3.894 7.5 4.029s0.578 0.199 0.906 0.199c0.328 0 0.654-0.064 0.906-0.199s7.012-3.767 7.5-4.029c0.489-0.263 0.951-1.286 0.054-1.286h-16.919c-0.897 0-0.435 1.023 0.053 1.286zM18.613 7.489c-0.555 0.289-7.387 3.849-7.727 4.027s-0.578 0.199-0.906 0.199-0.566-0.021-0.906-0.199-7.133-3.739-7.688-4.028c-0.39-0.204-0.386 0.035-0.386 0.219s0 7.293 0 7.293c0 0.42 0.566 1 1 1h16c0.434 0 1-0.58 1-1 0 0 0-7.108 0-7.292s0.004-0.423-0.387-0.219z"></path>
</symbol>
<symbol id="icon-message" viewBox="0 0 20 20">
<path d="M18 6v7c0 1.1-0.9 2-2 2h-4v3l-4-3h-4c-1.101 0-2-0.9-2-2v-7c0-1.1 0.899-2 2-2h12c1.1 0 2 0.9 2 2z"></path>
</symbol>
<symbol id="icon-mobile" viewBox="0 0 20 20">
<path d="M14.004 0h-8.008c-1.102 0-1.996 0.894-1.996 1.996v16.007c0 1.103 0.894 1.997 1.996 1.997h8.007c1.103 0 1.997-0.894 1.997-1.996v-16.008c0-1.102-0.894-1.996-1.996-1.996zM10 19c-0.69 0-1.25-0.447-1.25-1s0.56-1 1.25-1 1.25 0.447 1.25 1-0.56 1-1.25 1zM14 16h-8v-14h8v14z"></path>
</symbol>
<symbol id="icon-home2" viewBox="0 0 32 32">
<path d="M16 1l-16 16 3 3 3-3v13h8v-6h4v6h8v-13l3 3 3-3-16-16zM16 14c-1.105 0-2-0.895-2-2s0.895-2 2-2c1.105 0 2 0.895 2 2s-0.895 2-2 2z"></path>
</symbol>
<symbol id="icon-image" viewBox="0 0 32 32">
<path d="M29.996 4c0.001 0.001 0.003 0.002 0.004 0.004v23.993c-0.001 0.001-0.002 0.003-0.004 0.004h-27.993c-0.001-0.001-0.003-0.002-0.004-0.004v-23.993c0.001-0.001 0.002-0.003 0.004-0.004h27.993zM30 2h-28c-1.1 0-2 0.9-2 2v24c0 1.1 0.9 2 2 2h28c1.1 0 2-0.9 2-2v-24c0-1.1-0.9-2-2-2v0z"></path>
<path d="M26 9c0 1.657-1.343 3-3 3s-3-1.343-3-3 1.343-3 3-3 3 1.343 3 3z"></path>
<path d="M28 26h-24v-4l7-12 8 10h2l7-6z"></path>
</symbol>
<symbol id="icon-profile" viewBox="0 0 32 32">
<path d="M27 0h-24c-1.65 0-3 1.35-3 3v26c0 1.65 1.35 3 3 3h24c1.65 0 3-1.35 3-3v-26c0-1.65-1.35-3-3-3zM26 28h-22v-24h22v24zM8 18h14v2h-14zM8 22h14v2h-14zM10 9c0-1.657 1.343-3 3-3s3 1.343 3 3c0 1.657-1.343 3-3 3s-3-1.343-3-3zM15 12h-4c-1.65 0-3 0.9-3 2v2h10v-2c0-1.1-1.35-2-3-2z"></path>
</symbol>
<symbol id="icon-phone" viewBox="0 0 32 32">
<path d="M22 20c-2 2-2 4-4 4s-4-2-6-4-4-4-4-6 2-2 4-4-4-8-6-8-6 6-6 6c0 4 4.109 12.109 8 16s12 8 16 8c0 0 6-4 6-6s-6-8-8-6z"></path>
</symbol>
<symbol id="icon-location2" viewBox="0 0 32 32">
<path d="M16 0c-5.523 0-10 4.477-10 10 0 10 10 22 10 22s10-12 10-22c0-5.523-4.477-10-10-10zM16 16.125c-3.383 0-6.125-2.742-6.125-6.125s2.742-6.125 6.125-6.125 6.125 2.742 6.125 6.125-2.742 6.125-6.125 6.125zM12.125 10c0-2.14 1.735-3.875 3.875-3.875s3.875 1.735 3.875 3.875c0 2.14-1.735 3.875-3.875 3.875s-3.875-1.735-3.875-3.875z"></path>
</symbol>
<symbol id="icon-bubble" viewBox="0 0 32 32">
<path d="M16 2c8.837 0 16 5.82 16 13s-7.163 13-16 13c-0.849 0-1.682-0.054-2.495-0.158-3.437 3.437-7.539 4.053-11.505 4.144v-0.841c2.142-1.049 4-2.961 4-5.145 0-0.305-0.024-0.604-0.068-0.897-3.619-2.383-5.932-6.024-5.932-10.103 0-7.18 7.163-13 16-13z"></path>
</symbol>
<symbol id="icon-spinner2" viewBox="0 0 32 32">
<path d="M32 16c-0.040-2.089-0.493-4.172-1.331-6.077-0.834-1.906-2.046-3.633-3.533-5.060-1.486-1.428-3.248-2.557-5.156-3.302-1.906-0.748-3.956-1.105-5.981-1.061-2.025 0.040-4.042 0.48-5.885 1.292-1.845 0.809-3.517 1.983-4.898 3.424s-2.474 3.147-3.193 4.994c-0.722 1.846-1.067 3.829-1.023 5.79 0.040 1.961 0.468 3.911 1.254 5.694 0.784 1.784 1.921 3.401 3.316 4.736 1.394 1.336 3.046 2.391 4.832 3.085 1.785 0.697 3.701 1.028 5.598 0.985 1.897-0.040 3.78-0.455 5.502-1.216 1.723-0.759 3.285-1.859 4.574-3.208 1.29-1.348 2.308-2.945 2.977-4.67 0.407-1.046 0.684-2.137 0.829-3.244 0.039 0.002 0.078 0.004 0.118 0.004 1.105 0 2-0.895 2-2 0-0.056-0.003-0.112-0.007-0.167h0.007zM28.822 21.311c-0.733 1.663-1.796 3.169-3.099 4.412s-2.844 2.225-4.508 2.868c-1.663 0.646-3.447 0.952-5.215 0.909-1.769-0.041-3.519-0.429-5.119-1.14-1.602-0.708-3.053-1.734-4.25-2.991s-2.141-2.743-2.76-4.346c-0.621-1.603-0.913-3.319-0.871-5.024 0.041-1.705 0.417-3.388 1.102-4.928 0.683-1.541 1.672-2.937 2.883-4.088s2.642-2.058 4.184-2.652c1.542-0.596 3.192-0.875 4.832-0.833 1.641 0.041 3.257 0.404 4.736 1.064 1.48 0.658 2.82 1.609 3.926 2.774s1.975 2.54 2.543 4.021c0.57 1.481 0.837 3.064 0.794 4.641h0.007c-0.005 0.055-0.007 0.11-0.007 0.167 0 1.032 0.781 1.88 1.784 1.988-0.195 1.088-0.517 2.151-0.962 3.156z"></path>
</symbol>
<symbol id="icon-spinner6" viewBox="0 0 32 32">
<path d="M12 4c0-2.209 1.791-4 4-4s4 1.791 4 4c0 2.209-1.791 4-4 4s-4-1.791-4-4zM24.719 16c0 0 0 0 0 0 0-1.812 1.469-3.281 3.281-3.281s3.281 1.469 3.281 3.281c0 0 0 0 0 0 0 1.812-1.469 3.281-3.281 3.281s-3.281-1.469-3.281-3.281zM21.513 24.485c0-1.641 1.331-2.972 2.972-2.972s2.972 1.331 2.972 2.972c0 1.641-1.331 2.972-2.972 2.972s-2.972-1.331-2.972-2.972zM13.308 28c0-1.487 1.205-2.692 2.692-2.692s2.692 1.205 2.692 2.692c0 1.487-1.205 2.692-2.692 2.692s-2.692-1.205-2.692-2.692zM5.077 24.485c0-1.346 1.092-2.438 2.438-2.438s2.438 1.092 2.438 2.438c0 1.346-1.092 2.438-2.438 2.438s-2.438-1.092-2.438-2.438zM1.792 16c0-1.22 0.989-2.208 2.208-2.208s2.208 0.989 2.208 2.208c0 1.22-0.989 2.208-2.208 2.208s-2.208-0.989-2.208-2.208zM5.515 7.515c0 0 0 0 0 0 0-1.105 0.895-2 2-2s2 0.895 2 2c0 0 0 0 0 0 0 1.105-0.895 2-2 2s-2-0.895-2-2zM28.108 7.515c0 2.001-1.622 3.623-3.623 3.623s-3.623-1.622-3.623-3.623c0-2.001 1.622-3.623 3.623-3.623s3.623 1.622 3.623 3.623z"></path>
</symbol>
<symbol id="icon-shrink2" viewBox="0 0 32 32">
<path d="M14 18v13l-5-5-6 6-3-3 6-6-5-5zM32 3l-6 6 5 5h-13v-13l5 5 6-6z"></path>
</symbol>
<symbol id="icon-facebook" viewBox="0 0 32 32">
<path d="M19 6h5v-6h-5c-3.86 0-7 3.14-7 7v3h-4v6h4v16h6v-16h5l1-6h-6v-3c0-0.542 0.458-1 1-1z"></path>
</symbol>
<symbol id="icon-instagram" viewBox="0 0 32 32">
<path d="M16 2.881c4.275 0 4.781 0.019 6.462 0.094 1.563 0.069 2.406 0.331 2.969 0.55 0.744 0.288 1.281 0.638 1.837 1.194 0.563 0.563 0.906 1.094 1.2 1.838 0.219 0.563 0.481 1.412 0.55 2.969 0.075 1.688 0.094 2.194 0.094 6.463s-0.019 4.781-0.094 6.463c-0.069 1.563-0.331 2.406-0.55 2.969-0.288 0.744-0.637 1.281-1.194 1.837-0.563 0.563-1.094 0.906-1.837 1.2-0.563 0.219-1.413 0.481-2.969 0.55-1.688 0.075-2.194 0.094-6.463 0.094s-4.781-0.019-6.463-0.094c-1.563-0.069-2.406-0.331-2.969-0.55-0.744-0.288-1.281-0.637-1.838-1.194-0.563-0.563-0.906-1.094-1.2-1.837-0.219-0.563-0.481-1.413-0.55-2.969-0.075-1.688-0.094-2.194-0.094-6.463s0.019-4.781 0.094-6.463c0.069-1.563 0.331-2.406 0.55-2.969 0.288-0.744 0.638-1.281 1.194-1.838 0.563-0.563 1.094-0.906 1.838-1.2 0.563-0.219 1.412-0.481 2.969-0.55 1.681-0.075 2.188-0.094 6.463-0.094zM16 0c-4.344 0-4.887 0.019-6.594 0.094-1.7 0.075-2.869 0.35-3.881 0.744-1.056 0.412-1.95 0.956-2.837 1.85-0.894 0.888-1.438 1.781-1.85 2.831-0.394 1.019-0.669 2.181-0.744 3.881-0.075 1.713-0.094 2.256-0.094 6.6s0.019 4.887 0.094 6.594c0.075 1.7 0.35 2.869 0.744 3.881 0.413 1.056 0.956 1.95 1.85 2.837 0.887 0.887 1.781 1.438 2.831 1.844 1.019 0.394 2.181 0.669 3.881 0.744 1.706 0.075 2.25 0.094 6.594 0.094s4.888-0.019 6.594-0.094c1.7-0.075 2.869-0.35 3.881-0.744 1.050-0.406 1.944-0.956 2.831-1.844s1.438-1.781 1.844-2.831c0.394-1.019 0.669-2.181 0.744-3.881 0.075-1.706 0.094-2.25 0.094-6.594s-0.019-4.887-0.094-6.594c-0.075-1.7-0.35-2.869-0.744-3.881-0.394-1.063-0.938-1.956-1.831-2.844-0.887-0.887-1.781-1.438-2.831-1.844-1.019-0.394-2.181-0.669-3.881-0.744-1.712-0.081-2.256-0.1-6.6-0.1v0z"></path>
<path d="M16 7.781c-4.537 0-8.219 3.681-8.219 8.219s3.681 8.219 8.219 8.219 8.219-3.681 8.219-8.219c0-4.537-3.681-8.219-8.219-8.219zM16 21.331c-2.944 0-5.331-2.387-5.331-5.331s2.387-5.331 5.331-5.331c2.944 0 5.331 2.387 5.331 5.331s-2.387 5.331-5.331 5.331z"></path>
<path d="M26.462 7.456c0 1.060-0.859 1.919-1.919 1.919s-1.919-0.859-1.919-1.919c0-1.060 0.859-1.919 1.919-1.919s1.919 0.859 1.919 1.919z"></path>
</symbol>
<symbol id="icon-twitter" viewBox="0 0 32 32">
<path d="M32 7.075c-1.175 0.525-2.444 0.875-3.769 1.031 1.356-0.813 2.394-2.1 2.887-3.631-1.269 0.75-2.675 1.3-4.169 1.594-1.2-1.275-2.906-2.069-4.794-2.069-3.625 0-6.563 2.938-6.563 6.563 0 0.512 0.056 1.012 0.169 1.494-5.456-0.275-10.294-2.888-13.531-6.862-0.563 0.969-0.887 2.1-0.887 3.3 0 2.275 1.156 4.287 2.919 5.463-1.075-0.031-2.087-0.331-2.975-0.819 0 0.025 0 0.056 0 0.081 0 3.181 2.263 5.838 5.269 6.437-0.55 0.15-1.131 0.231-1.731 0.231-0.425 0-0.831-0.044-1.237-0.119 0.838 2.606 3.263 4.506 6.131 4.563-2.25 1.762-5.075 2.813-8.156 2.813-0.531 0-1.050-0.031-1.569-0.094 2.913 1.869 6.362 2.95 10.069 2.95 12.075 0 18.681-10.006 18.681-18.681 0-0.287-0.006-0.569-0.019-0.85 1.281-0.919 2.394-2.075 3.275-3.394z"></path>
</symbol>
<symbol id="icon-steam2" viewBox="0 0 32 32">
<path d="M9.498 26.125c0.848 0 1.681-0.41 2.187-1.169 0.804-1.206 0.478-2.836-0.728-3.64l-2.065-1.377c0.353-0.096 0.725-0.149 1.109-0.149 2.325 0 4.209 1.884 4.209 4.209s-1.885 4.209-4.209 4.209c-2.263 0-4.108-1.785-4.205-4.024l2.249 1.499c0.448 0.298 0.953 0.441 1.454 0.441zM26.667 0c2.934 0 5.333 2.4 5.333 5.334v21.332c0 2.936-2.399 5.334-5.333 5.334h-21.333c-2.934 0-5.334-2.398-5.334-5.334v-6.345l3.792 2.528c-0.364 1.974 0.217 4.088 1.744 5.615 2.466 2.466 6.463 2.466 8.929 0 1.515-1.515 2.098-3.607 1.752-5.568l7.783-6.968c1.445-0.207 2.838-0.867 3.95-1.979 2.734-2.734 2.734-7.166 0-9.899s-7.166-2.734-9.9 0c-1.112 1.112-1.771 2.505-1.979 3.95v0l-6.397 9.695c-0.995 0.051-1.981 0.336-2.866 0.856l-6.808-4.539v-8.678c0-2.934 2.4-5.334 5.334-5.334h21.333zM28 9c0-2.761-2.239-5-5-5s-5 2.239-5 5 2.239 5 5 5 5-2.239 5-5zM20 9c0-1.657 1.343-3 3-3s3 1.343 3 3-1.343 3-3 3-3-1.343-3-3z"></path>
</symbol>
<symbol id="icon-github" viewBox="0 0 32 32">
<path d="M16 0.395c-8.836 0-16 7.163-16 16 0 7.069 4.585 13.067 10.942 15.182 0.8 0.148 1.094-0.347 1.094-0.77 0-0.381-0.015-1.642-0.022-2.979-4.452 0.968-5.391-1.888-5.391-1.888-0.728-1.849-1.776-2.341-1.776-2.341-1.452-0.993 0.11-0.973 0.11-0.973 1.606 0.113 2.452 1.649 2.452 1.649 1.427 2.446 3.743 1.739 4.656 1.33 0.143-1.034 0.558-1.74 1.016-2.14-3.554-0.404-7.29-1.777-7.29-7.907 0-1.747 0.625-3.174 1.649-4.295-0.166-0.403-0.714-2.030 0.155-4.234 0 0 1.344-0.43 4.401 1.64 1.276-0.355 2.645-0.532 4.005-0.539 1.359 0.006 2.729 0.184 4.008 0.539 3.054-2.070 4.395-1.64 4.395-1.64 0.871 2.204 0.323 3.831 0.157 4.234 1.026 1.12 1.647 2.548 1.647 4.295 0 6.145-3.743 7.498-7.306 7.895 0.574 0.497 1.085 1.47 1.085 2.963 0 2.141-0.019 3.864-0.019 4.391 0 0.426 0.288 0.925 1.099 0.768 6.354-2.118 10.933-8.113 10.933-15.18 0-8.837-7.164-16-16-16z"></path>
</symbol>
</defs>
</svg>
